<svg xmlns="http://www.w3.org/2000/svg" viewBox="0 0 160 160" role="img" aria-labelledby="title desc">
  <title id="title">earlybird Coffee Logo</title>
  <desc id="desc">Stylized illustration of a bird in a circular emblem with orange tail and turquoise wing.</desc>
  <circle cx="80" cy="80" r="74" fill="none" stroke="#1f2933" stroke-width="12" />
  <path d="M52 118c-6-12-9-30-4-48 5-20 22-35 44-35 22 0 42 16 47 38 5 22-10 46-29 55-16 7-40 5-58-10z" fill="#f6e6d1" />
  <path d="M90 62c12 0 24 6 31 17-12 6-27 8-44 5-12-2-23-7-31-13 8-6 22-9 44-9z" fill="#1d9fdb" />
  <path d="M60 118c12-10 34-16 56-12-2 6-6 12-12 16-13 8-31 7-44-4z" fill="#136e96" opacity="0.55" />
  <path d="M116 94c8-1 17 1 24 5-3 10-11 19-21 24-9 4-20 4-30 0 5-12 16-27 27-29z" fill="#f4633a" />
  <circle cx="102" cy="78" r="8" fill="#1f2933" />
  <path d="M42 90c-6-12-4-26 4-36 8-11 20-18 34-20-10 7-18 18-22 30-4 12-5 25-2 36-6-2-11-6-14-10z" fill="#fcebd8" />
</svg>
